<svg width="296" height="252" viewBox="0 0 296 252" fill="none" xmlns="http://www.w3.org/2000/svg">
<path d="M75.5 151.185C117.197 151.185 151 117.341 151 75.5923C151 33.8438 117.197 0 75.5 0C33.8025 0 0 33.8438 0 75.5923C0 117.341 33.8025 151.185 75.5 151.185Z" fill="url(#paint0_linear_1079_279)"/>
<path d="M29.2695 75.6289H121.726" stroke="black" stroke-width="2" stroke-miterlimit="10"/>
<path d="M75.4961 29.3164V31.2811" stroke="black" stroke-width="2" stroke-miterlimit="10"/>
<path d="M75.4961 35.1367V118.054" stroke="black" stroke-width="2" stroke-miterlimit="10"/>
<path d="M75.4961 119.98V121.945" stroke="black" stroke-width="2" stroke-miterlimit="10"/>
<path d="M42.8086 42.8828L70.2762 70.4018" stroke="black" stroke-width="2" stroke-miterlimit="10"/>
<path d="M75.5002 75.6341L65.1328 71.2724L69.8851 70.0085L71.1467 65.2539L75.5002 75.6341Z" fill="black"/>
<path d="M75.4961 75.625L102.964 103.144" stroke="black" stroke-width="2" stroke-miterlimit="10"/>
<path d="M108.188 108.371L97.8203 104.009L102.573 102.746L103.834 97.9844L108.188 108.371Z" fill="black"/>
<path d="M75.4961 75.6361L102.964 48.1172" stroke="black" stroke-width="2" stroke-miterlimit="10"/>
<path d="M108.188 42.8828L103.834 53.2695L102.573 48.5084L97.8203 47.2445L108.188 42.8828Z" fill="black"/>
<path d="M17.712 214V146.8H22.608V209.584H61.296V214H17.712ZM73.3883 214V146.8H78.2843V214H73.3883ZM129.925 214.48C124.869 214.48 120.197 213.648 115.909 211.984C111.621 210.256 107.877 207.856 104.677 204.784C101.541 201.712 99.1088 198.128 97.3808 194.032C95.6528 189.872 94.7888 185.328 94.7888 180.4C94.7888 175.472 95.6528 170.96 97.3808 166.864C99.1088 162.704 101.573 159.088 104.773 156.016C107.973 152.944 111.685 150.576 115.909 148.912C120.197 147.184 124.901 146.32 130.021 146.32C134.885 146.32 139.397 147.088 143.557 148.624C147.717 150.16 151.269 152.464 154.213 155.536L151.141 158.8C148.197 155.92 144.965 153.872 141.445 152.656C137.989 151.44 134.213 150.832 130.117 150.832C125.765 150.832 121.733 151.568 118.021 153.04C114.309 154.512 111.077 156.592 108.325 159.28C105.573 161.968 103.429 165.104 101.893 168.688C100.421 172.272 99.6848 176.176 99.6848 180.4C99.6848 184.624 100.421 188.528 101.893 192.112C103.429 195.696 105.573 198.832 108.325 201.52C111.077 204.208 114.309 206.288 118.021 207.76C121.733 209.232 125.765 209.968 130.117 209.968C134.085 209.968 137.829 209.36 141.349 208.144C144.933 206.928 148.197 204.912 151.141 202.096L153.925 205.84C150.917 208.72 147.301 210.896 143.077 212.368C138.917 213.776 134.533 214.48 129.925 214.48ZM149.221 205.36V180.688H153.925V205.84L149.221 205.36ZM224.815 146.8H229.711V214H224.815V146.8ZM179.887 214H174.991V146.8H179.887V214ZM225.391 182.032H179.311V177.712H225.391V182.032ZM265.562 214V151.216H241.37V146.8H294.65V151.216H270.458V214H265.562Z" fill="url(#paint1_linear_1079_279)"/>
<defs>
<linearGradient id="paint0_linear_1079_279" x1="36" y1="-27.5" x2="75.1672" y2="150.963" gradientUnits="userSpaceOnUse">
<stop offset="0.151042" stop-color="#FFBABD"/>
<stop offset="1" stop-color="#FCFF00"/>
</linearGradient>
<linearGradient id="paint1_linear_1079_279" x1="22.0221" y1="116" x2="278.388" y2="214.292" gradientUnits="userSpaceOnUse">
<stop offset="0.306658" stop-color="#FCFF00"/>
<stop offset="0.484375" stop-color="#79FA4C"/>
<stop offset="0.875" stop-color="#46FFF4" stop-opacity="0.46"/>
</linearGradient>
</defs>
</svg>
