<svg width="250" height="259" viewBox="0 0 250 259" fill="none" xmlns="http://www.w3.org/2000/svg">
<path d="M174.5 258.189C216.197 258.189 250 224.345 250 182.596C250 140.848 216.197 107.004 174.5 107.004C132.803 107.004 99 140.848 99 182.596C99 224.345 132.803 258.189 174.5 258.189Z" fill="url(#paint0_linear_828_238)"/>
<path d="M128.27 182.633H220.726" stroke="black" stroke-width="2" stroke-miterlimit="10"/>
<path d="M174.496 136.32V138.285" stroke="black" stroke-width="2" stroke-miterlimit="10"/>
<path d="M174.496 142.141V225.058" stroke="black" stroke-width="2" stroke-miterlimit="10"/>
<path d="M174.496 226.984V228.949" stroke="black" stroke-width="2" stroke-miterlimit="10"/>
<path d="M141.809 149.887L169.276 177.406" stroke="black" stroke-width="2" stroke-miterlimit="10"/>
<path d="M174.5 182.638L164.133 178.276L168.885 177.012L170.147 172.258L174.5 182.638Z" fill="black"/>
<path d="M174.496 182.629L201.964 210.148" stroke="black" stroke-width="2" stroke-miterlimit="10"/>
<path d="M207.188 215.375L196.82 211.013L201.573 209.749L202.834 204.988L207.188 215.375Z" fill="black"/>
<path d="M174.496 182.64L201.964 155.121" stroke="black" stroke-width="2" stroke-miterlimit="10"/>
<path d="M207.188 149.887L202.834 160.273L201.573 155.512L196.82 154.248L207.188 149.887Z" fill="black"/>
<path d="M76.4619 0.875V54.8458H135.144V68.8307H93.6845V115.571C93.6845 119.781 95.476 122.038 99.076 122.038H115.994C118.394 122.038 120.186 120.833 121.386 118.728C122.738 116.318 123.634 109.105 124.225 97.089L138 101.451C136.8 117.829 134.704 127.605 131.713 130.761C128.873 133.765 124.53 135.276 118.546 135.276H94.9014C84.4225 135.276 79.3352 129.573 79.3352 118.44V68.8307H57.0253V69.2889C56.4338 88.0769 52.2423 103.267 44.6028 114.689C37.1155 125.212 24.8451 133.324 8.07887 139.044L0 126.417C16.1577 120.714 27.2451 113.637 33.2282 104.93C39.0592 95.918 42.2028 84.0376 42.6591 69.3059V68.8477H3.58309V54.8628H62.1127V0.891963H76.4789L76.4619 0.875ZM47.7295 42.8127L34.2591 49.5845C27.9718 36.9574 21.2282 25.5352 14.0451 15.4709L27.5155 9.15731C34.5465 19.3744 41.2901 30.508 47.7295 42.8297V42.8127ZM124.817 14.0961C119.882 26.265 113.442 38.1454 105.363 49.5675L92.3324 42.7957C100.411 30.9154 106.699 19.1877 111.499 7.62983L124.817 14.0961Z" fill="url(#paint1_linear_828_238)"/>
<defs>
<linearGradient id="paint0_linear_828_238" x1="140" y1="107.004" x2="210.642" y2="258.122" gradientUnits="userSpaceOnUse">
<stop offset="0.151042" stop-color="#FCFF00"/>
<stop offset="1" stop-color="#46FFF4" stop-opacity="0.19"/>
</linearGradient>
<linearGradient id="paint1_linear_828_238" x1="9.5" y1="0.875002" x2="116.654" y2="128.903" gradientUnits="userSpaceOnUse">
<stop stop-color="#FFBABD"/>
<stop offset="1" stop-color="#FCFF00"/>
</linearGradient>
</defs>
</svg>
