<svg width="111" height="12" viewBox="0 0 111 12" fill="none" xmlns="http://www.w3.org/2000/svg">
<path d="M6.50541 7.83481L6.09636 7.42576L0 7.44149V5.56146L4.21239 5.54966L1.22321 2.5762L2.55261 1.2468L5.55359 4.22812L5.52999 0H7.41003L7.43363 4.21239L10.3953 1.22321L11.7247 2.55261L8.76303 5.54179L12.9715 5.52999V7.41003L8.7591 7.42183L11.7483 10.3953L10.4189 11.7247L6.50541 7.83481Z" fill="#000"/>
<path d="M26.0492 4.18091C26.0492 2.82791 25.5929 1.84856 24.6844 1.25072C23.7758 0.648955 22.4739 0.350037 20.7866 0.350037H19.9921H17.4592V0.35397V0.700086V5.78956V7.67747V11.7955H19.9921V8.02359H20.7866C22.4739 8.02359 23.7758 7.72467 24.6844 7.1229C25.5929 6.52113 26.0492 5.54571 26.0492 4.19271C26.0492 4.18878 26.0492 4.18878 26.0492 4.18091C26.0492 4.18484 26.0492 4.18484 26.0492 4.18091ZM22.7689 5.50638C22.3245 5.7463 21.6637 5.86429 20.7866 5.86429H19.9921V2.61552C20.1219 2.60372 20.2753 2.59586 20.4562 2.58406C20.6332 2.57226 20.8142 2.56833 20.999 2.56833C21.3687 2.56833 21.7031 2.59192 22.0059 2.64306C22.3088 2.69025 22.5644 2.77678 22.7768 2.90264C22.9892 3.0285 23.1504 3.19369 23.2645 3.39822C23.3786 3.60274 23.4336 3.86233 23.4336 4.17698C23.4336 4.82201 23.2134 5.26646 22.7689 5.50638Z" fill="#000"/>
<path d="M29.2979 0.534912H31.8309V11.7876H29.2979V0.534912Z" fill="#000"/>
<path d="M45.3766 0.534912H42.4621L40.2281 3.94101L37.9941 0.534912H35.0797L38.7689 6.16323L35.0797 11.7915H37.9941L40.2281 8.38545L42.4621 11.7915H45.3766L41.6834 6.16323L45.3766 0.534912Z" fill="#000"/>
<path d="M67.178 9.61259V11.7876H59.6578V0.534912H62.1908V9.61259H67.178Z" fill="#000"/>
<path d="M70.4268 0.534912H72.9597V11.7876H70.4268V0.534912Z" fill="#000"/>
<path d="M95.7797 0.534912H98.3127V11.7876H95.7797V7.01672H91.5241V11.7915H88.9911V0.534912H91.5241V4.83776H95.7797V0.534912Z" fill="#000"/>
<path d="M110.883 0.534912V2.6942H107.489V11.7876H104.956V2.6942H101.561V0.534912H110.883Z" fill="#000"/>
<path d="M81.939 2.48969H82.3442H84.5821V0.27533H81.8407C81.062 0.27533 80.3265 0.405123 79.6382 0.66471C78.9499 0.924297 78.352 1.30581 77.8446 1.80925C77.3373 2.31269 76.9361 2.92626 76.6411 3.65389C76.3501 4.37759 76.2045 5.21142 76.2045 6.15537C76.2045 7.08752 76.3383 7.91348 76.6018 8.64111C76.8653 9.36481 77.2429 9.97838 77.7306 10.4779C78.2183 10.9774 78.8043 11.355 79.4926 11.6146C80.1809 11.8741 80.9479 12.0039 81.7896 12.0039C81.8053 12.0039 81.8211 12.0039 81.8368 12.0039H81.9351C81.9666 12.0039 82.002 12.0039 82.0334 12C82.0885 12 82.1436 12 82.1986 11.9961C82.2458 11.9961 82.293 12 82.3402 12H85.0856H85.7424V11.414V9.78565V6.1357H83.2094V9.75812C83.1622 9.76992 83.1111 9.77779 83.06 9.78565C82.9459 9.80532 82.8201 9.81712 82.6824 9.82498C82.4818 9.83678 82.2419 9.84072 81.9587 9.84072C81.9194 9.84072 81.884 9.84072 81.8446 9.83678C81.3727 9.82498 80.9558 9.73846 80.5939 9.56933C80.2045 9.39234 79.8781 9.14062 79.6185 8.81417C79.3589 8.48772 79.1622 8.10227 79.0325 7.65389C78.9027 7.20552 78.8358 6.70208 78.8358 6.15144C78.8358 5.01476 79.0993 4.118 79.6224 3.4651C80.1141 2.8594 80.885 2.53295 81.939 2.48969Z" fill="#000"/>
<path d="M51.1347 9.66372V7.22518H55.469V5.10128H51.1347V2.66274H56.0393V0.534912H51.1347H48.6254V2.66274V5.10128V7.22518V9.66372V11.7915H51.1347H56.413V9.66372H51.1347Z" fill="#000"/>
</svg>
