<svg xmlns="http://www.w3.org/2000/svg" viewBox="0 0 257 231.94">
  <defs>
    <style>
      .a {
        stroke: #000;
        stroke-width: 0.5;
        stroke-miterlimit: 10;
      }
    </style>
  </defs>
  <path class="a" d="M254.5,109.74H178.61a2,2,0,0,1-1.42-3.41l53.67-53.66a2,2,0,0,0,0-2.83l-23.7-23.7a2,2,0,0,0-2.83,0L150.67,79.81a2,2,0,0,1-3.42-1.42V2.5a2,2,0,0,0-2-2H111.74a2,2,0,0,0-2,2V78.39a2,2,0,0,1-3.41,1.42L52.67,26.14a2,2,0,0,0-2.83,0l-23.7,23.7a2,2,0,0,0,0,2.83l53.67,53.66a2,2,0,0,1-1.42,3.41H2.5a2,2,0,0,0-2,2v33.52a2,2,0,0,0,2,2H119.9a2,2,0,0,1,1.42.58l83,83a2,2,0,0,0,2.83,0l23.7-23.7a2,2,0,0,0,0-2.83l-53.67-53.66a2,2,0,0,1,1.42-3.41H254.5a2,2,0,0,0,2-2V111.74A2,2,0,0,0,254.5,109.74Z" />
</svg>