{
	"nodes":[{
		"name":"logo",
		"mesh":0
	}],
	"asset":{
		"version":"2.0",
		"generator":"Created using the official Cinema 4D glTF Exporter 1.000x284978"
	},
	"scenes":[{
		"nodes":[0]
	}],
	"meshes":[{
		"name":"logo",
		"primitives":[{
			"attributes":{
				"POSITION":1,
				"NORMAL":2
			},
			"indices":0
		}]
	}],
	"accessors":[{
		"bufferView":0,
		"type":"SCALAR",
		"componentType":5123,
		"count":912,
		"byteOffset":0,
		"min":[0],
		"max":[379]
	},
	{
		"bufferView":1,
		"type":"VEC3",
		"componentType":5126,
		"count":380,
		"byteOffset":0,
		"min":[-1.693333387374878,
		-1.527437686920166,
		-0.16875000298023225],
		"max":[1.693333387374878,
		1.527437686920166,
		0.16875000298023225]
	},
	{
		"bufferView":1,
		"type":"VEC3",
		"componentType":5126,
		"count":380,
		"byteOffset":12,
		"min":[-1.0,
		-1.0,
		-1.0],
		"max":[1.0,
		1.0,
		1.0]
	}],
	"bufferViews":[{
		"buffer":0,
		"byteOffset":0,
		"byteLength":1824,
		"target":34963
	},
	{
		"buffer":0,
		"byteOffset":1824,
		"byteLength":9120,
		"target":34962,
		"byteStride":24
	}],
	"buffers":[{
		"uri":"data:application/octet-stream;base64,",
		"byteLength":10944
	}]
}